<svg xmlns="http://www.w3.org/2000/svg" viewBox="0 0 720 460" font-family="system-ui,sans-serif">
  <rect width="720" height="460" fill="#faf8f5"/>
  <text x="360" y="28" text-anchor="middle" font-size="16" font-weight="600" fill="#1a1a1a">Tini Trade  System Architecture</text>
  <rect x="40" y="48" width="640" height="72" rx="8" fill="#e8f4fc" stroke="#3b82f6"/>
  <text x="360" y="72" text-anchor="middle" font-size="12" font-weight="600" fill="#1e40af">Clients</text>
  <text x="180" y="98" text-anchor="middle" font-size="11" fill="#334155">Next.js Admin FE</text>
  <text x="360" y="98" text-anchor="middle" font-size="11" fill="#334155">Next.js User FE</text>
  <text x="540" y="98" text-anchor="middle" font-size="11" fill="#334155">Mobile App (User)</text>
  <rect x="120" y="140" width="480" height="64" rx="8" fill="#fef3c7" stroke="#d97706"/>
  <text x="360" y="164" text-anchor="middle" font-size="12" font-weight="600" fill="#92400e">NestJS Backends (Docker / Ubuntu VPS)</text>
  <text x="240" y="188" text-anchor="middle" font-size="11" fill="#334155">Admin API</text>
  <text x="480" y="188" text-anchor="middle" font-size="11" fill="#334155">User / Trading API</text>
  <rect x="160" y="224" width="400" height="72" rx="8" fill="#fce7f3" stroke="#db2777"/>
  <text x="360" y="248" text-anchor="middle" font-size="12" font-weight="600" fill="#9d174d">Core Services</text>
  <text x="360" y="268" text-anchor="middle" font-size="10" fill="#334155">Trading · Orders · Portfolio · Market data</text>
  <text x="360" y="284" text-anchor="middle" font-size="10" fill="#334155">Auth · KYC hooks · Admin reporting</text>
  <rect x="200" y="312" width="320" height="48" rx="8" fill="#dcfce7" stroke="#16a34a"/>
  <text x="360" y="340" text-anchor="middle" font-size="11" fill="#334155">RabbitMQ  async order settlement, alerts, webhooks</text>
  <rect x="120" y="376" width="200" height="56" rx="8" fill="#f3e8ff" stroke="#9333ea"/>
  <text x="220" y="408" text-anchor="middle" font-size="11" font-weight="600" fill="#6b21a8">MongoDB</text>
  <rect x="340" y="376" width="120" height="56" rx="8" fill="#f3e8ff" stroke="#9333ea"/>
  <text x="400" y="408" text-anchor="middle" font-size="11" font-weight="600" fill="#6b21a8">Redis</text>
  <rect x="480" y="376" width="120" height="56" rx="8" fill="#f3e8ff" stroke="#9333ea"/>
  <text x="540" y="408" text-anchor="middle" font-size="11" font-weight="600" fill="#6b21a8">External APIs</text>
</svg>
